<svg width="66" height="66" viewBox="0 0 66 66" fill="none" xmlns="http://www.w3.org/2000/svg">
<path fill-rule="evenodd" clip-rule="evenodd" d="M52.9725 6H13.2111C7.5834 6 3 10.6027 3 16.2111V40.9266C3 46.5543 7.60275 51.1377 13.2111 51.1377H27.2514L29.6688 55.3152L32.0475 59.4342C32.4729 60.1887 33.5559 60.1887 34.0008 59.4342L36.3795 55.3152L38.7969 51.1377H52.992C58.6197 51.1377 63.2031 46.5351 63.2031 40.9266V16.2305C63.2031 10.6028 58.6002 6 52.9725 6ZM35.8743 24.0908C32.7993 24.0908 30.3048 26.5469 30.3048 29.5832C30.3048 32.6193 32.7993 35.0754 35.8743 35.0754C38.9493 35.0754 41.4441 32.6193 41.4441 29.5832C41.4441 26.5469 38.9688 24.0908 35.8743 24.0908ZM35.8743 32.2134C34.4046 32.2134 33.2055 31.0335 33.2055 29.5832C33.2055 28.1327 34.4046 26.953 35.8743 26.953C37.3443 26.953 38.5431 28.1327 38.5431 29.5832C38.5431 31.0335 37.3635 32.2134 35.8743 32.2134ZM15.0708 25.3362C15.9411 24.5433 17.0628 24.0791 18.2618 24.0791C21.0467 24.0791 23.2707 26.5546 23.2707 29.5908C23.2707 32.6271 21.0273 35.0832 18.2618 35.0832C17.0434 35.0832 15.9411 34.5996 15.0708 33.8262V34.8123H11.9766V20.7914H15.0708V25.3362ZM15.0902 30.6546C15.5156 31.6407 16.502 32.3178 17.643 32.3178C19.1901 32.3178 20.4278 31.0992 20.4278 29.5715C20.4278 28.0437 19.1901 26.8253 17.643 26.8253C16.502 26.8253 15.5156 27.5022 15.0902 28.4885C14.9355 28.8172 14.8581 29.1847 14.8581 29.5715C14.8581 29.9583 14.9548 30.3258 15.0902 30.6546ZM51.1017 24.3241V25.1943C50.2314 24.5174 49.1484 24.1113 47.988 24.1113C45.1452 24.1113 42.8436 26.4901 42.8436 29.4103C42.8436 32.3304 45.1452 34.7091 47.988 34.7091C49.1676 34.7091 50.2506 34.3032 51.1017 33.6261V35.0961C51.1017 35.0961 50.7921 36.5466 48.6261 36.5466V39.2733C48.6261 39.2733 50.9661 39.5439 53.055 37.4553C53.055 37.4553 54.0219 36.4305 54.2346 35.0766V24.3241H51.1017ZM48.5682 32.0985C47.0016 32.0985 45.7446 30.8802 45.7446 29.3909C45.7446 27.9018 47.0211 26.6834 48.5682 26.6834C49.6704 26.6834 50.6376 27.3023 51.1017 28.1919C51.2949 28.5593 51.3918 28.9655 51.3918 29.3909C51.3918 29.8164 51.2757 30.2418 51.1017 30.5901C50.6376 31.4988 49.6704 32.0985 48.5682 32.0985ZM23.6133 23.3318V20.5276C23.6133 20.5276 25.6632 20.2568 27.4811 22.4035C27.4811 22.4035 28.3127 23.4478 28.5061 24.8402V24.9176V34.8192H25.3151V24.9176C25.0444 23.5252 23.6133 23.3318 23.6133 23.3318Z" fill="#1D332A"/>
</svg>
