<svg width="36" height="36" viewBox="0 0 36 36" fill="none" xmlns="http://www.w3.org/2000/svg">
<path d="M18.0013 1.5C19.5926 1.5 21.1188 2.13214 22.244 3.25736C23.3692 4.38258 24.0013 5.9087 24.0013 7.5L23.9983 7.5825L24.0433 7.5555C25.3074 6.82222 26.7969 6.57931 28.2283 6.873L28.5838 6.957C29.3415 7.16186 30.0512 7.51448 30.6721 7.99458C31.293 8.47468 31.8129 9.07278 32.2018 9.7545C32.9931 11.1315 33.2078 12.7655 32.7989 14.3001C32.39 15.8347 31.3908 17.1453 30.0193 17.946L29.9173 18L30.0238 18.0585C31.3459 18.8316 32.3234 20.0798 32.7568 21.5487C33.1902 23.0176 33.047 24.5966 32.3563 25.9635L32.2048 26.2425C31.8157 26.9252 31.2953 27.5241 30.6736 28.0047C30.0519 28.4853 29.3413 28.8381 28.5826 29.0428C27.8239 29.2475 27.0322 29.3 26.2532 29.1973C25.4741 29.0947 24.7231 28.8388 24.0433 28.4445L23.9983 28.4145L24.0013 28.5C24.0013 30.0394 23.4097 31.5198 22.3488 32.6352C21.2878 33.7506 19.8388 34.4155 18.3013 34.4925L18.0013 34.5C16.41 34.5 14.8839 33.8679 13.7587 32.7426C12.6335 31.6174 12.0013 30.0913 12.0013 28.5L12.0028 28.416L11.9593 28.4445C10.6955 29.1783 9.20602 29.4217 7.77435 29.1285L7.42035 29.0445C6.66241 28.8398 5.95243 28.4873 5.33126 28.0072C4.71008 27.5271 4.18997 26.9289 3.80085 26.247C3.00978 24.8705 2.79496 23.2372 3.20324 21.703C3.61151 20.1688 4.60976 18.8582 5.98035 18.057L6.08535 18L5.97885 17.943C4.65675 17.1699 3.67933 15.9217 3.24591 14.4528C2.81248 12.9839 2.9557 11.4049 3.64635 10.038L3.79635 9.7575C4.1855 9.07423 4.70611 8.47479 5.32815 7.99378C5.95019 7.51277 6.66133 7.15972 7.42053 6.955C8.17973 6.75028 8.97196 6.69794 9.75149 6.80101C10.531 6.90407 11.2824 7.1605 11.9623 7.5555L12.0013 7.5825V7.5C12.0013 5.96064 12.593 4.48016 13.6539 3.36478C14.7149 2.24941 16.1639 1.58447 17.7013 1.5075L18.0013 1.5ZM18.0013 13.5C16.8079 13.5 15.6633 13.9741 14.8194 14.818C13.9755 15.6619 13.5013 16.8065 13.5013 18C13.5013 19.1935 13.9755 20.3381 14.8194 21.182C15.6633 22.0259 16.8079 22.5 18.0013 22.5C19.1948 22.5 20.3394 22.0259 21.1833 21.182C22.0272 20.3381 22.5013 19.1935 22.5013 18C22.5013 16.8065 22.0272 15.6619 21.1833 14.818C20.3394 13.9741 19.1948 13.5 18.0013 13.5Z" fill="#217F55"/>
<circle cx="18.0098" cy="18.1035" r="4.77539" fill="#FFDE3B"/>
</svg>
