<svg width="18" height="18" viewBox="0 0 18 18" fill="none" xmlns="http://www.w3.org/2000/svg">
<path d="M8.94824 6.73452L7.70774 7.84752C7.87172 8.40879 8.10077 8.94896 8.39024 9.45702C8.69217 9.96137 9.05599 10.426 9.47324 10.84L11.0797 10.345C11.9797 10.0675 12.9622 10.3525 13.5607 11.065L14.4757 12.154C14.8462 12.5912 15.0319 13.1554 14.9936 13.7272C14.9552 14.2989 14.6958 14.8333 14.2702 15.217C12.7777 16.579 10.4797 17.0395 8.75924 15.688C7.24644 14.4981 5.96689 13.0385 4.98524 11.383C4.00108 9.73564 3.34217 7.91472 3.04424 6.01902C2.71424 3.88602 4.27574 2.17902 6.22274 1.59702C7.38374 1.24902 8.62274 1.84602 9.04874 2.95902L9.55124 4.27152C9.88124 5.13552 9.64424 6.11052 8.94824 6.73452Z" fill="white"/>
</svg>
