<svg width="72" height="72" viewBox="0 0 72 72" fill="none" xmlns="http://www.w3.org/2000/svg">
<path fill-rule="evenodd" clip-rule="evenodd" d="M9 33C9 21.687 9 16.029 12.516 12.516C16.032 9.003 21.687 9 33 9H39C50.313 9 55.971 9 59.484 12.516C62.997 16.032 63 21.687 63 33V39C63 50.313 63 55.971 59.484 59.484C55.968 62.997 50.313 63 39 63H33C21.687 63 16.029 63 12.516 59.484C9.003 55.968 9 50.313 9 39V33ZM54 22.5C54 23.6935 53.5259 24.8381 52.682 25.682C51.8381 26.5259 50.6935 27 49.5 27C48.3065 27 47.1619 26.5259 46.318 25.682C45.4741 24.8381 45 23.6935 45 22.5C45 21.3065 45.4741 20.1619 46.318 19.318C47.1619 18.4741 48.3065 18 49.5 18C50.6935 18 51.8381 18.4741 52.682 19.318C53.5259 20.1619 54 21.3065 54 22.5ZM42 39C42 40.5913 41.3679 42.1174 40.2426 43.2426C39.1174 44.3679 37.5913 45 36 45C34.4087 45 32.8826 44.3679 31.7574 43.2426C30.6321 42.1174 30 40.5913 30 39C30 37.4087 30.6321 35.8826 31.7574 34.7574C32.8826 33.6321 34.4087 33 36 33C37.5913 33 39.1174 33.6321 40.2426 34.7574C41.3679 35.8826 42 37.4087 42 39ZM48 39C48 42.1826 46.7357 45.2348 44.4853 47.4853C42.2348 49.7357 39.1826 51 36 51C32.8174 51 29.7652 49.7357 27.5147 47.4853C25.2643 45.2348 24 42.1826 24 39C24 35.8174 25.2643 32.7652 27.5147 30.5147C29.7652 28.2643 32.8174 27 36 27C39.1826 27 42.2348 28.2643 44.4853 30.5147C46.7357 32.7652 48 35.8174 48 39Z" fill="#1D332A"/>
</svg>
