<svg width="36" height="36" viewBox="0 0 36 36" fill="none" xmlns="http://www.w3.org/2000/svg">
<rect x="5.25" y="10.5" width="6.75" height="16.5" fill="#EF265D"/>
<path d="M25.5 18C25.5 20.55 23.55 22.5 21 22.5C18.45 22.5 16.5 20.55 16.5 18C16.5 15.45 18.45 13.5 21 13.5C23.55 13.5 25.5 15.45 25.5 18ZM33 10.5V27C33 28.65 31.65 30 30 30H6C4.35 30 3 28.65 3 27V10.5C3 8.85 4.35 7.5 6 7.5V6H12V7.5H15L16.5 4.5H25.5L27 7.5H30C31.65 7.5 33 8.85 33 10.5ZM11.25 13.5C11.25 12.3 10.2 11.25 9 11.25C7.8 11.25 6.75 12.3 6.75 13.5C6.75 14.7 7.8 15.75 9 15.75C10.2 15.75 11.25 14.7 11.25 13.5ZM28.5 18C28.5 13.8 25.2 10.5 21 10.5C16.8 10.5 13.5 13.8 13.5 18C13.5 22.2 16.8 25.5 21 25.5C25.2 25.5 28.5 22.2 28.5 18Z" fill="#FFE45D"/>
</svg>
