<svg width="48" height="48" viewBox="0 0 48 48" fill="none" xmlns="http://www.w3.org/2000/svg">
<rect x="7" y="14" width="9" height="22" fill="#EF265D"/>
<path d="M34 24C34 27.4 31.4 30 28 30C24.6 30 22 27.4 22 24C22 20.6 24.6 18 28 18C31.4 18 34 20.6 34 24ZM44 14V36C44 38.2 42.2 40 40 40H8C5.8 40 4 38.2 4 36V14C4 11.8 5.8 10 8 10V8H16V10H20L22 6H34L36 10H40C42.2 10 44 11.8 44 14ZM15 18C15 16.4 13.6 15 12 15C10.4 15 9 16.4 9 18C9 19.6 10.4 21 12 21C13.6 21 15 19.6 15 18ZM38 24C38 18.4 33.6 14 28 14C22.4 14 18 18.4 18 24C18 29.6 22.4 34 28 34C33.6 34 38 29.6 38 24Z" fill="#FFE45D"/>
</svg>
