<svg width="36" height="36" viewBox="0 0 36 36" fill="none" xmlns="http://www.w3.org/2000/svg">
<path d="M30 28.5001C30 31.8151 24.63 34.5001 18 34.5001C11.37 34.5001 6 31.8151 6 28.5001C6 26.5651 7.83 24.8401 10.665 23.7451L11.625 25.1101C10.005 25.7851 9 26.7151 9 27.7501C9 29.8201 13.035 31.5001 18 31.5001C22.965 31.5001 27 29.8201 27 27.7501C27 26.7151 25.995 25.7851 24.375 25.1101L25.335 23.7451C28.17 24.8401 30 26.5651 30 28.5001Z" fill="#40B17E"/>
<path d="M18 2.1709C22.965 2.1709 27 6.1609 27 11.0959C27 17.7859 18 27.6709 18 27.6709C18 27.6709 9 17.7859 9 11.0959C9 6.1609 13.035 2.1709 18 2.1709ZM18 8.1709C17.2044 8.1709 16.4413 8.48697 15.8787 9.04958C15.3161 9.61219 15 10.3752 15 11.1709C15 11.9665 15.3161 12.7296 15.8787 13.2922C16.4413 13.8548 17.2044 14.1709 18 14.1709C18.7956 14.1709 19.5587 13.8548 20.1213 13.2922C20.6839 12.7296 21 11.9665 21 11.1709C21 10.3752 20.6839 9.61219 20.1213 9.04958C19.5587 8.48697 18.7956 8.1709 18 8.1709Z" fill="#F2D12D"/>
</svg>
