<svg width="70" height="70" viewBox="0 0 70 70" fill="none" xmlns="http://www.w3.org/2000/svg">
<rect x="16.7812" y="31.5332" width="36.6328" height="24.3398" fill="#217F55"/>
<path d="M61.25 58.334V17.5007C61.25 14.2836 58.6338 11.6673 55.4167 11.6673H49.5833V5.83398H43.75V11.6673H26.25V5.83398H20.4167V11.6673H14.5833C11.3662 11.6673 8.75 14.2836 8.75 17.5007V58.334C8.75 61.5511 11.3662 64.1673 14.5833 64.1673H55.4167C58.6338 64.1673 61.25 61.5511 61.25 58.334ZM26.25 52.5006H20.4167V46.6673H26.25V52.5006ZM26.25 40.834H20.4167V35.0006H26.25V40.834ZM37.9167 52.5006H32.0833V46.6673H37.9167V52.5006ZM37.9167 40.834H32.0833V35.0006H37.9167V40.834ZM49.5833 52.5006H43.75V46.6673H49.5833V52.5006ZM49.5833 40.834H43.75V35.0006H49.5833V40.834ZM55.4167 26.2506H14.5833V20.4173H55.4167V26.2506Z" fill="#333333"/>
</svg>
