<svg width="70" height="70" viewBox="0 0 70 70" fill="none" xmlns="http://www.w3.org/2000/svg">
<path d="M42.5 7C42.5673 7 42.632 7.0156 42.6875 7.04297C42.7425 7.07019 42.7848 7.10717 42.8145 7.14648L42.8154 7.14746L60.2012 30.2236L60.2021 30.2246C60.2368 30.2705 60.2539 30.3195 60.2578 30.3652C60.2617 30.4108 60.2527 30.4593 60.2285 30.5059C60.204 30.5528 60.1627 30.5998 60.1025 30.6357C60.0418 30.672 59.9672 30.6934 59.8877 30.6934H51.0449L53.2939 33.8535L64.9482 50.2305C64.9807 50.276 64.9971 50.325 65 50.3701C65.0027 50.415 64.9924 50.462 64.9678 50.5078C64.9427 50.5543 64.9018 50.6014 64.8418 50.6367C64.7814 50.6722 64.7074 50.6924 64.6289 50.6924H42.8711V62.6924C42.8711 62.7562 42.845 62.8285 42.7812 62.8906C42.7156 62.9545 42.6155 63 42.5 63C42.3845 63 42.2844 62.9545 42.2188 62.8906C42.155 62.8285 42.1289 62.7562 42.1289 62.6924V50.6924H20.3711C20.2926 50.6924 20.2186 50.6722 20.1582 50.6367C20.0982 50.6014 20.0573 50.5543 20.0322 50.5078C20.0076 50.462 19.9982 50.415 20.001 50.3701C20.0038 50.325 20.0193 50.276 20.0518 50.2305L31.7031 33.8525L33.9512 30.6934H25.1123C25.0328 30.6934 24.9582 30.672 24.8975 30.6357C24.8373 30.5998 24.796 30.5528 24.7715 30.5059C24.7473 30.4593 24.7383 30.4108 24.7422 30.3652C24.7461 30.3195 24.7632 30.2705 24.7979 30.2246L24.7988 30.2236L42.1846 7.14746L42.1855 7.14648C42.2152 7.10717 42.2575 7.07019 42.3125 7.04297C42.368 7.0156 42.4327 7 42.5 7Z" stroke="#217F55" stroke-width="4"/>
<path d="M29.3344 5.94379C29.1232 5.65129 28.8471 5.41341 28.5284 5.24943C28.2097 5.08545 27.8573 5 27.5 5C27.1427 5 26.7904 5.08545 26.4716 5.24943C26.1529 5.41341 25.8768 5.65129 25.6656 5.94379L8.98907 29.0198C8.74011 29.3638 8.59001 29.771 8.55545 30.1963C8.52089 30.6216 8.60323 31.0483 8.7933 31.4289C8.98338 31.8096 9.27376 32.1293 9.63216 32.3526C9.99056 32.5758 10.4029 32.6939 10.8235 32.6935H15.5808L4.40454 49.0714C4.1682 49.4177 4.02978 49.823 4.00429 50.2435C3.9788 50.664 4.06722 51.0835 4.25996 51.4566C4.4527 51.8297 4.74241 52.1421 5.09768 52.36C5.45294 52.5779 5.86022 52.693 6.27534 52.6928H25.2259V62.6924C25.2259 63.3044 25.4655 63.8914 25.892 64.3241C26.3185 64.7569 26.8969 65 27.5 65C28.1031 65 28.6815 64.7569 29.108 64.3241C29.5345 63.8914 29.7741 63.3044 29.7741 62.6924V52.6928H48.7247C49.1398 52.693 49.5471 52.5779 49.9023 52.36C50.2576 52.1421 50.5473 51.8297 50.74 51.4566C50.9328 51.0835 51.0212 50.664 50.9957 50.2435C50.9702 49.823 50.8318 49.4177 50.5955 49.0714L39.4161 32.6935H44.1765C44.5971 32.6939 45.0094 32.5758 45.3678 32.3526C45.7263 32.1293 46.0166 31.8096 46.2067 31.4289C46.3968 31.0483 46.4791 30.6216 46.4446 30.1963C46.41 29.771 46.2599 29.3638 46.0109 29.0198L29.3344 5.94379Z" fill="#333333"/>
</svg>
