<svg width="70" height="70" viewBox="0 0 70 70" fill="none" xmlns="http://www.w3.org/2000/svg">
<path d="M43.7363 15.1348L43.9492 15.0439L62.333 7.16602C62.4787 7.10355 62.638 7.07774 62.7959 7.0918C62.9539 7.10593 63.1068 7.15967 63.2393 7.24707C63.3714 7.33443 63.4797 7.45323 63.5547 7.59277C63.6298 7.7324 63.669 7.88835 63.6689 8.04688V31.9219L44.2529 42.6221V20.1709L43.5781 20.4609L26.4766 11.9082L25.7529 11.5469V49.8301L26.4258 49.54L43.2529 57.9541V63.3574L26.4766 54.9697L26.2686 54.8662L26.0557 54.958L7.67188 62.8359C7.52608 62.8984 7.36697 62.9233 7.20898 62.9092C7.05104 62.8951 6.89898 62.8422 6.7666 62.7549C6.63417 62.6675 6.52532 62.548 6.4502 62.4082C6.3752 62.2686 6.33581 62.1126 6.33594 61.9541V14.9141L26.2363 6.38477L43.7363 15.1348Z" fill="#333333" stroke="#333333"/>
<path d="M58.6484 52.4999V52.5291M64.8347 58.6862C66.0587 57.4626 66.8923 55.9035 67.2301 54.2061C67.568 52.5087 67.3948 50.7492 66.7326 49.1502C66.0704 47.5512 64.9489 46.1845 63.51 45.2229C62.071 44.2613 60.3791 43.748 58.6484 43.748C56.9177 43.748 55.2259 44.2613 53.7869 45.2229C52.3479 46.1845 51.2264 47.5512 50.5642 49.1502C49.9021 50.7492 49.7289 52.5087 50.0668 54.2061C50.4046 55.9035 51.2382 57.4626 52.4622 58.6862C53.6814 59.9073 55.7434 61.7341 58.6484 64.1666C61.7148 61.5707 63.7769 59.7439 64.8347 58.6862Z" stroke="#217F55" stroke-width="4" stroke-linecap="round" stroke-linejoin="round"/>
</svg>
